<?xml version="1.0" encoding="utf-8"?>
<!-- Generator: Adobe Illustrator 22.0.1, SVG Export Plug-In . SVG Version: 6.00 Build 0)  -->
<svg version="1.1" id="레이어_1" xmlns="http://www.w3.org/2000/svg" xmlns:xlink="http://www.w3.org/1999/xlink" x="0px"
	 y="0px" viewBox="0 0 205 56" style="enable-background:new 0 0 205 56;" xml:space="preserve">
<style type="text/css">
	.st0{fill:#EBC1FF;stroke:#000000;stroke-width:0.5;stroke-miterlimit:10;}
	.st1{fill:#C7FFDA;stroke:#000000;stroke-width:0.5;stroke-miterlimit:10;}
</style>
<g>
	<path class="st0" d="M52.676,19.434h-6.355V4.475c0-0.474-0.386-0.86-0.86-0.86h-9.791c-0.474,0-0.86,0.386-0.86,0.86v21.536
		c0,1.398-0.537,2.635-1.64,3.784c-1.166,1.214-2.616,2.178-4.315,2.866c-1.711,0.694-3.317,1.044-4.778,1.044
		c-2.35,0-4.212-0.629-5.694-1.925c-1.43-1.25-2.153-3.501-2.153-6.696c0-2.073,0.22-4.382,0.654-6.858
		c0.442-2.516,1.082-5.677,1.899-9.397l0.671-3.09c0.057-0.254-0.006-0.52-0.17-0.721c-0.164-0.203-0.409-0.321-0.669-0.321H8.827
		c-0.39,0-0.732,0.264-0.83,0.642C7.1,8.752,6.349,12.35,5.764,16.036c-0.587,3.7-0.887,7.176-0.887,10.336
		c0,4.235,0.585,7.571,1.734,9.906c1.457,3.027,3.734,5.237,6.766,6.571c2.948,1.296,6.288,1.954,9.929,1.954
		c2.109,0,4.443-0.405,6.935-1.201c1.784-0.57,3.315-1.256,4.57-2.044v10.424c0,0.474,0.386,0.86,0.86,0.86h9.791
		c0.474,0,0.86-0.386,0.86-0.86V30.529h6.355c0.474,0,0.86-0.386,0.86-0.86v-9.376C53.536,19.82,53.15,19.434,52.676,19.434z"/>
	<path class="st0" d="M100.335,28.141h-7.858c1.734-1.891,3.107-3.822,4.09-5.757c0-0.002,0-0.002,0-0.002
		c1.258-2.482,1.897-4.885,1.897-7.139c0-2.522-0.757-4.761-2.245-6.661c-1.61-2.05-3.877-3.575-6.74-4.535
		c-5.338-1.79-12.418-1.849-19.974-0.285c-3.606,0.746-7.122,1.793-10.449,3.107c-0.434,0.172-0.652,0.66-0.488,1.096l3.04,8.193
		c0.161,0.44,0.65,0.669,1.099,0.509c3.078-1.117,6.095-2.017,8.969-2.675c6.617-1.52,11.518-1.279,13.277,0.832
		c0.551,0.637,0.818,1.312,0.818,2.067c0,0.908-0.411,1.933-1.224,3.048c-0.887,1.214-2.245,2.604-4.036,4.128
		c-0.201,0.17-0.312,0.421-0.302,0.686c0.008,0.262,0.138,0.505,0.35,0.66l3.711,2.726H57.056c-0.474,0-0.86,0.386-0.86,0.86v8.296
		c0,0.474,0.386,0.86,0.86,0.86h14.906v14.34c0,0.474,0.386,0.86,0.86,0.86h10.562c0.474,0,0.86-0.386,0.86-0.86v-14.34h16.091
		c0.474,0,0.86-0.386,0.86-0.86v-8.296C101.195,28.527,100.809,28.141,100.335,28.141z"/>
	<path class="st1" d="M151.6,19.434h-6.353V4.475c0-0.474-0.386-0.86-0.86-0.86h-9.791c-0.474,0-0.86,0.386-0.86,0.86v21.536
		c0,1.4-0.535,2.637-1.64,3.784c-1.164,1.214-2.614,2.178-4.315,2.866c-1.709,0.694-3.317,1.044-4.78,1.044
		c-2.348,0-4.21-0.629-5.692-1.925c-1.43-1.25-2.153-3.501-2.153-6.696c0-2.073,0.22-4.382,0.654-6.858
		c0.442-2.516,1.082-5.677,1.899-9.397l0.671-3.09c0.057-0.254-0.006-0.52-0.17-0.721c-0.164-0.203-0.409-0.321-0.669-0.321h-9.791
		c-0.39,0-0.732,0.264-0.83,0.642c-0.897,3.413-1.648,7.011-2.233,10.697c-0.587,3.7-0.887,7.176-0.887,10.336
		c0,4.235,0.585,7.571,1.734,9.906c1.457,3.027,3.734,5.237,6.766,6.571c2.948,1.296,6.288,1.954,9.929,1.954
		c2.109,0,4.443-0.405,6.933-1.201c1.784-0.57,3.315-1.254,4.573-2.044v10.424c0,0.474,0.386,0.86,0.86,0.86h9.791
		c0.474,0,0.86-0.386,0.86-0.86V30.529h6.353c0.474,0,0.86-0.386,0.86-0.86v-9.376C152.46,19.82,152.074,19.434,151.6,19.434z"/>
	<path class="st1" d="M199.263,28.141h-7.858c1.736-1.891,3.107-3.822,4.092-5.759c1.258-2.478,1.895-4.881,1.895-7.139
		c0-2.522-0.755-4.763-2.248-6.661c-1.606-2.048-3.874-3.575-6.738-4.535C183.074,2.259,176,2.198,168.431,3.762
		c-3.602,0.746-7.12,1.793-10.447,3.107c-0.434,0.172-0.652,0.66-0.488,1.096l3.04,8.193c0.168,0.44,0.654,0.669,1.099,0.509
		c3.078-1.117,6.097-2.017,8.969-2.675c6.617-1.52,11.514-1.281,13.275,0.834c0.553,0.635,0.822,1.31,0.822,2.065
		c0,0.906-0.411,1.931-1.229,3.048c-0.881,1.212-2.239,2.6-4.038,4.128c-0.197,0.17-0.31,0.421-0.302,0.686
		c0.013,0.262,0.138,0.505,0.352,0.66l3.711,2.726h-27.213c-0.474,0-0.86,0.386-0.86,0.86v8.296c0,0.474,0.386,0.86,0.86,0.86
		h14.906v14.34c0,0.474,0.386,0.86,0.86,0.86h10.562c0.474,0,0.86-0.386,0.86-0.86v-14.34h16.093c0.474,0,0.86-0.386,0.86-0.86
		v-8.296C200.123,28.527,199.737,28.141,199.263,28.141z"/>
</g>
</svg>
